<?xml version="1.0" encoding="UTF-8"?>
<svg id="katman_2" data-name="katman 2" xmlns="http://www.w3.org/2000/svg" viewBox="0 0 363.53 49.01">
  <defs>
    <style>
      .cls-1, .cls-2 {
        fill: #002b59;
      }

      .cls-2, .cls-3 {
        fill-rule: evenodd;
      }

      .cls-3 {
        fill: #20bec6;
      }
    </style>
  </defs>
  <g id="katman_1" data-name="katman 1">
    <g>
      <g>
        <polygon class="cls-2" points="40.77 .79 23.4 23.99 14.23 12.09 5.53 .79 0 .79 0 48.24 6.47 48.24 6.47 13.02 6.35 12.09 6.75 12.8 7.02 13.14 22.02 32.72 24.63 32.72 31.09 23.99 39.5 12.63 39.78 12.29 40.17 11.5 40.11 12.09 40.07 12.47 40.07 12.63 40.06 48.24 46.53 48.24 46.53 11.5 46.53 .79 40.77 .79"/>
        <polygon class="cls-2" points="84.06 42.15 62.78 42.15 62.78 28.18 82.36 28.18 82.36 22.06 62.78 22.06 62.78 6.91 82.83 6.91 82.83 .79 56.31 .79 56.31 6.91 56.31 22.06 56.31 28.18 56.31 42.15 56.31 48.26 84.06 48.26 84.06 42.15"/>
        <path class="cls-2" d="M129.49,21.2l-.56-3.06-.93-2.91-1.29-2.72-1.64-2.51-1.99-2.27-1.28-1.11-1.04-.9-2.65-1.7-2.98-1.37-3.29-1.02-3.6-.63-3.9-.22h-12.11v47.45h11.52l3.93-.22,3.64-.63,3.34-1.02,3.04-1.38,2.72-1.71,1.06-.89,3.39-3.42,1.7-2.54,1.34-2.75.97-2.94.59-3.11.2-3.24-.19-3.18ZM122.71,27.39l-.68,2.89-1.15,2.75-1.65,2.54-2.16,2.25-2.69,1.88-3.24,1.44-3.8.92-4.39.32h-4.22V6.63h5.49l3.63.29,3.31.84,2.96,1.33,2.58,1.77,2.17,2.16,1.74,2.49,1.27,2.77.78,2.99.27,3.16-.22,2.94Z"/>
        <rect class="cls-1" x="137.49" y=".79" width="6.47" height="47.45"/>
        <polygon class="cls-2" points="193.76 40.12 189.11 36.09 185.87 39.12 182.35 41.15 178.72 42.3 175.18 42.66 172.38 42.38 169.52 41.52 166.73 40.1 164.15 38.11 161.9 35.54 160.14 32.4 158.98 28.68 158.56 24.39 158.91 20.5 159.9 16.99 161.47 13.92 163.54 11.31 166.05 9.21 168.92 7.66 172.07 6.7 175.45 6.37 179.16 6.73 182.49 7.77 185.44 9.44 188.04 11.7 192.86 7.42 190.82 5.31 188.51 3.49 185.87 2.02 182.83 .92 179.34 .24 175.33 0 172 .22 168.84 .86 165.89 1.9 163.16 3.31 160.66 5.05 158.43 7.11 156.49 9.46 154.85 12.06 153.53 14.89 152.57 17.93 151.98 21.14 151.77 24.51 152.05 28.48 152.86 32.15 154.15 35.51 155.85 38.53 157.92 41.21 160.31 43.52 162.95 45.45 165.8 46.99 168.81 48.1 171.91 48.78 175.06 49.01 179.08 48.71 182.8 47.83 186.17 46.47 189.15 44.68 191.69 42.54 193.76 40.12"/>
        <path class="cls-2" d="M230.1,32.9l-2.35-6.1-5.62-14.57-1.3-3.36-3.12-8.08h-4.19l-18.19,47.45h6.91l5.72-15.35h15.12l5.72,15.35h7.22l-5.92-15.35ZM210.22,26.8l4.93-13.35.2-.43.16-.79.2.79.2.51,4.93,13.26h-10.62Z"/>
        <polygon class="cls-2" points="273.36 .79 273.36 34.91 273.48 35.89 273.04 35.05 272.65 34.53 256.63 12.55 248.06 .79 242.54 .79 242.54 48.24 249.05 48.24 249.05 13.59 248.89 12.55 249.48 13.45 249.76 13.85 274.66 48.24 279.87 48.24 279.87 35.89 279.87 .79 273.36 .79"/>
        <path class="cls-2" d="M321.1,32.89l-2.35-6.1-5.62-14.57-4.41-11.44h-4.18l-18.19,47.45h6.91l5.72-15.35h15.11l5.72,15.35h7.22l-5.92-15.35ZM301.22,26.8l4.93-13.35.2-.43.16-.79.2.79.19.51,4.93,13.26h-10.61Z"/>
      </g>
      <g>
        <polygon class="cls-3" points="348.88 48.24 330.58 .79 323.35 .79 341.67 48.24 348.88 48.24"/>
        <polygon class="cls-3" points="363.53 48.24 345.18 .79 337.95 .79 356.3 48.24 363.53 48.24"/>
      </g>
    </g>
  </g>
</svg>